<?xml version="1.0" encoding="UTF-8" standalone="no"?>
<!-- Generator: Adobe Illustrator 20.1.0, SVG Export Plug-In . SVG Version: 6.00 Build 0)  -->

<svg
   xmlns:dc="http://purl.org/dc/elements/1.1/"
   xmlns:cc="http://creativecommons.org/ns#"
   xmlns:rdf="http://www.w3.org/1999/02/22-rdf-syntax-ns#"
   xmlns:svg="http://www.w3.org/2000/svg"
   xmlns="http://www.w3.org/2000/svg"
   xmlns:sodipodi="http://sodipodi.sourceforge.net/DTD/sodipodi-0.dtd"
   xmlns:inkscape="http://www.inkscape.org/namespaces/inkscape"
   version="1.1"
   id="Calque_1"
   x="0px"
   y="0px"
   viewBox="0 0 453.49999 268.20002"
   xml:space="preserve"
   inkscape:version="0.91 r13725"
   sodipodi:docname="IMT_Atlantique_logo_white.svg"
   width="453.5"
   height="268.20001"><metadata
     id="metadata145"><rdf:RDF><cc:Work
         rdf:about=""><dc:format>image/svg+xml</dc:format><dc:type
           rdf:resource="http://purl.org/dc/dcmitype/StillImage" /><dc:title></dc:title></cc:Work></rdf:RDF></metadata><defs
     id="defs143" /><sodipodi:namedview
     pagecolor="#ffffff"
     bordercolor="#666666"
     borderopacity="1"
     objecttolerance="10"
     gridtolerance="10"
     guidetolerance="10"
     inkscape:pageopacity="0"
     inkscape:pageshadow="2"
     inkscape:window-width="1920"
     inkscape:window-height="943"
     id="namedview141"
     showgrid="false"
     inkscape:zoom="1.1212982"
     inkscape:cx="80.010329"
     inkscape:cy="53.504355"
     inkscape:window-x="0"
     inkscape:window-y="1"
     inkscape:window-maximized="1"
     inkscape:current-layer="g133"
     fit-margin-top="0"
     fit-margin-left="0"
     fit-margin-right="0"
     fit-margin-bottom="0" /><style
     type="text/css"
     id="style3">
	.st0{fill:none;}
	.st1{fill:#010202;}
	.st2{fill:#00B8DE;}
</style><g
     id="g5"
     transform="translate(-186.5,-160.6)"><g
       id="g7"><rect
         x="121.7"
         y="95.800003"
         class="st0"
         width="583.09998"
         height="396.5"
         id="rect9"
         style="fill:none" /></g><g
       id="g11"
       style="fill:#ffffff;fill-opacity:1"
       inkscape:export-xdpi="201.34227"
       inkscape:export-ydpi="201.34227"><g
         id="g13"
         style="fill:#ffffff;fill-opacity:1"><g
           id="g15"
           style="fill:#ffffff;fill-opacity:1"><path
             class="st1"
             d="m 193.7,313.2 0,32.7 -7.2,0 0,-32.7 7.2,0 z"
             id="path17"
             style="fill:#ffffff;fill-opacity:1"
             inkscape:connector-curvature="0" /><path
             class="st1"
             d="m 209.8,313.2 7.6,22.5 0.1,0 7.2,-22.5 10.1,0 0,32.7 -6.7,0 0,-23.2 -0.1,0 -8,23.2 -5.5,0 -8,-22.9 -0.1,0 0,22.9 -6.7,0 0,-32.7 10.1,0 z"
             id="path19"
             style="fill:#ffffff;fill-opacity:1"
             inkscape:connector-curvature="0" /><path
             class="st1"
             d="m 238.1,319.3 0,-6 26.8,0 0,6 -9.9,0 0,26.6 -7.2,0 0,-26.6 -9.7,0 z"
             id="path21"
             style="fill:#ffffff;fill-opacity:1"
             inkscape:connector-curvature="0" /><path
             class="st1"
             d="m 297.6,313.2 12.2,32.7 -7.5,0 -2.5,-7.3 -12.2,0 -2.6,7.3 -7.2,0 12.4,-32.7 7.4,0 z m 0.4,20.1 -4.1,-12 -0.1,0 -4.3,12 8.5,0 z"
             id="path23"
             style="fill:#ffffff;fill-opacity:1"
             inkscape:connector-curvature="0" /><path
             class="st1"
             d="m 323.9,322.2 0,4.3 -4.8,0 0,11.7 c 0,1.1 0.2,1.8 0.5,2.2 0.3,0.4 1.1,0.5 2.2,0.5 0.4,0 0.7,0 1.1,0 0.3,0 0.7,-0.1 1,-0.1 l 0,5 c -0.5,0.1 -1.2,0.2 -1.8,0.2 -0.7,0 -1.3,0 -2,0 -1,0 -2,-0.1 -2.9,-0.2 -0.9,-0.1 -1.7,-0.4 -2.4,-0.8 -0.7,-0.4 -1.2,-1 -1.6,-1.7 -0.4,-0.7 -0.6,-1.7 -0.6,-2.9 l 0,-14 -3.9,0 0,-4.3 3.9,0 0,-7.1 6.5,0 0,7.1 4.8,0 z"
             id="path25"
             style="fill:#ffffff;fill-opacity:1"
             inkscape:connector-curvature="0" /><path
             class="st1"
             d="m 333.8,313.2 0,32.7 -6.5,0 0,-32.7 6.5,0 z"
             id="path27"
             style="fill:#ffffff;fill-opacity:1"
             inkscape:connector-curvature="0" /><path
             class="st1"
             d="m 338.5,329.5 c 0.1,-1.5 0.5,-2.8 1.1,-3.8 0.7,-1 1.5,-1.8 2.6,-2.4 1,-0.6 2.2,-1 3.5,-1.3 1.3,-0.3 2.6,-0.4 3.9,-0.4 1.2,0 2.4,0.1 3.6,0.3 1.2,0.2 2.3,0.5 3.3,1 1,0.5 1.8,1.2 2.5,2 0.7,0.8 1,2 1,3.5 l 0,12.3 c 0,1.1 0.1,2.1 0.2,3.1 0.1,1 0.3,1.7 0.6,2.2 l -6.6,0 c -0.1,-0.4 -0.2,-0.7 -0.3,-1.1 -0.1,-0.4 -0.1,-0.8 -0.2,-1.2 -1,1.1 -2.3,1.8 -3.7,2.2 -1.4,0.4 -2.8,0.6 -4.3,0.6 -1.1,0 -2.2,-0.1 -3.2,-0.4 -1,-0.3 -1.8,-0.7 -2.6,-1.3 -0.7,-0.6 -1.3,-1.3 -1.7,-2.2 -0.4,-0.9 -0.6,-1.9 -0.6,-3.2 0,-1.3 0.2,-2.4 0.7,-3.3 0.5,-0.9 1.1,-1.6 1.8,-2.1 0.7,-0.5 1.6,-0.9 2.6,-1.2 1,-0.3 1.9,-0.5 2.9,-0.6 1,-0.2 1.9,-0.3 2.9,-0.4 0.9,-0.1 1.8,-0.2 2.5,-0.4 0.7,-0.2 1.3,-0.5 1.7,-0.8 0.4,-0.4 0.6,-0.9 0.6,-1.5 0,-0.7 -0.1,-1.3 -0.3,-1.7 -0.2,-0.4 -0.5,-0.7 -0.9,-1 -0.4,-0.2 -0.8,-0.4 -1.3,-0.5 -0.5,-0.1 -1,-0.1 -1.6,-0.1 -1.3,0 -2.3,0.3 -3,0.8 -0.7,0.5 -1.2,1.5 -1.3,2.7 l -6.4,0 z m 15.1,4.8 c -0.3,0.2 -0.6,0.4 -1,0.6 -0.4,0.1 -0.9,0.3 -1.3,0.3 -0.5,0.1 -1,0.2 -1.5,0.2 -0.5,0.1 -1,0.1 -1.6,0.2 -0.5,0.1 -1,0.2 -1.4,0.4 -0.5,0.2 -0.9,0.4 -1.2,0.6 -0.4,0.3 -0.6,0.6 -0.8,1 -0.2,0.4 -0.3,0.9 -0.3,1.5 0,0.6 0.1,1.1 0.3,1.5 0.2,0.4 0.5,0.7 0.9,0.9 0.4,0.2 0.8,0.4 1.3,0.5 0.5,0.1 1,0.1 1.5,0.1 1.3,0 2.3,-0.2 3,-0.6 0.7,-0.4 1.2,-0.9 1.6,-1.5 0.3,-0.6 0.5,-1.2 0.6,-1.8 0.1,-0.6 0.1,-1.1 0.1,-1.5 l 0,-2.4 z"
             id="path29"
             style="fill:#ffffff;fill-opacity:1"
             inkscape:connector-curvature="0" /><path
             class="st1"
             d="m 371.2,322.2 0,3.3 0.1,0 c 0.8,-1.4 1.9,-2.4 3.2,-3 1.3,-0.6 2.7,-0.9 4,-0.9 1.7,0 3.2,0.2 4.3,0.7 1.1,0.5 2,1.1 2.6,2 0.6,0.8 1.1,1.9 1.4,3.1 0.3,1.2 0.4,2.5 0.4,4 l 0,14.6 -6.5,0 0,-13.4 c 0,-2 -0.3,-3.4 -0.9,-4.4 -0.6,-1 -1.7,-1.4 -3.2,-1.4 -1.8,0 -3.1,0.5 -3.8,1.6 -0.8,1.1 -1.2,2.8 -1.2,5.2 l 0,12.4 -6.6,0 0,-23.7 6.2,0 z"
             id="path31"
             style="fill:#ffffff;fill-opacity:1"
             inkscape:connector-curvature="0" /><path
             class="st1"
             d="m 404.8,322.2 0,4.3 -4.8,0 0,11.7 c 0,1.1 0.2,1.8 0.5,2.2 0.3,0.4 1.1,0.5 2.2,0.5 0.4,0 0.7,0 1.1,0 0.3,0 0.7,-0.1 1,-0.1 l 0,5 c -0.5,0.1 -1.2,0.2 -1.8,0.2 -0.7,0 -1.3,0 -2,0 -1,0 -2,-0.1 -2.9,-0.2 -0.9,-0.1 -1.7,-0.4 -2.4,-0.8 -0.7,-0.4 -1.2,-1 -1.6,-1.7 -0.4,-0.7 -0.6,-1.7 -0.6,-2.9 l 0,-14 -3.9,0 0,-4.3 3.9,0 0,-7.1 6.5,0 0,7.1 4.8,0 z"
             id="path33"
             style="fill:#ffffff;fill-opacity:1"
             inkscape:connector-curvature="0" /><path
             class="st1"
             d="m 408.2,318.6 0,-5.4 6.5,0 0,5.4 -6.5,0 z m 6.5,3.6 0,23.7 -6.5,0 0,-23.7 6.5,0 z"
             id="path35"
             style="fill:#ffffff;fill-opacity:1"
             inkscape:connector-curvature="0" /><path
             class="st1"
             d="m 436.3,354.2 0,-11.3 -0.1,0 c -0.8,1.3 -1.8,2.2 -3.2,2.7 -1.4,0.5 -2.8,0.8 -4.3,0.8 -1.1,0 -2.2,-0.2 -3.4,-0.6 -1.2,-0.4 -2.2,-1.1 -3.2,-2.1 -1,-1 -1.8,-2.2 -2.4,-3.8 -0.6,-1.6 -1,-3.5 -1,-5.8 0,-1.6 0.2,-3.2 0.6,-4.7 0.4,-1.5 1.1,-2.9 2,-4.1 0.9,-1.2 2,-2.1 3.3,-2.8 1.3,-0.7 2.9,-1.1 4.7,-1.1 1.5,0 2.8,0.3 4.1,0.8 1.3,0.6 2.3,1.5 3,2.8 l 0.1,0 0,-3 6.2,0 0,31.9 -6.4,0 z m -10.8,-17.3 c 0.2,0.9 0.5,1.7 0.9,2.4 0.4,0.7 1,1.3 1.7,1.7 0.7,0.4 1.6,0.6 2.7,0.6 1.1,0 2,-0.2 2.7,-0.6 0.7,-0.4 1.3,-1 1.7,-1.6 0.4,-0.6 0.8,-1.5 1,-2.4 0.2,-0.9 0.3,-1.8 0.3,-2.8 0,-0.9 -0.1,-1.8 -0.3,-2.7 -0.2,-0.9 -0.5,-1.7 -0.9,-2.5 -0.4,-0.7 -1,-1.3 -1.7,-1.8 -0.7,-0.5 -1.6,-0.7 -2.6,-0.7 -1.1,0 -2,0.2 -2.7,0.6 -0.7,0.4 -1.3,1 -1.8,1.7 -0.5,0.7 -0.8,1.5 -1,2.4 -0.2,0.9 -0.3,1.8 -0.3,2.8 0,1 0.1,2 0.3,2.9 z"
             id="path37"
             style="fill:#ffffff;fill-opacity:1"
             inkscape:connector-curvature="0" /><path
             class="st1"
             d="m 463.6,345.9 0,-3.3 -0.1,0 c -0.8,1.4 -1.9,2.4 -3.2,3 -1.3,0.6 -2.7,0.9 -4,0.9 -1.7,0 -3.2,-0.2 -4.3,-0.7 -1.1,-0.5 -2,-1.1 -2.6,-1.9 -0.6,-0.8 -1.1,-1.9 -1.4,-3.1 -0.3,-1.2 -0.4,-2.5 -0.4,-4 l 0,-14.6 6.5,0 0,13.4 c 0,2 0.3,3.4 0.9,4.4 0.6,1 1.7,1.4 3.2,1.4 1.8,0 3.1,-0.5 3.8,-1.6 0.8,-1.1 1.2,-2.8 1.2,-5.2 l 0,-12.4 6.5,0 0,23.7 -6.1,0 z"
             id="path39"
             style="fill:#ffffff;fill-opacity:1"
             inkscape:connector-curvature="0" /><path
             class="st1"
             d="m 481.7,340.2 c 1,0.9 2.4,1.4 4.2,1.4 1.3,0 2.4,-0.3 3.4,-1 0.9,-0.7 1.5,-1.4 1.7,-2.1 l 5.7,0 c -0.9,2.8 -2.3,4.9 -4.2,6.1 -1.9,1.2 -4.2,1.8 -6.9,1.8 -1.9,0 -3.5,-0.3 -5,-0.9 -1.5,-0.6 -2.8,-1.4 -3.8,-2.5 -1,-1.1 -1.8,-2.4 -2.4,-3.9 -0.6,-1.5 -0.8,-3.2 -0.8,-5 0,-1.8 0.3,-3.4 0.9,-4.9 0.6,-1.5 1.4,-2.8 2.5,-4 1.1,-1.1 2.3,-2 3.8,-2.6 1.5,-0.6 3.1,-1 4.9,-1 2,0 3.8,0.4 5.3,1.2 1.5,0.8 2.7,1.8 3.7,3.1 1,1.3 1.7,2.8 2.1,4.5 0.4,1.7 0.6,3.4 0.5,5.3 l -17.1,0 c -0.1,2 0.5,3.6 1.5,4.5 z m 7.3,-12.4 c -0.8,-0.9 -2,-1.3 -3.5,-1.3 -1,0 -1.9,0.2 -2.6,0.5 -0.7,0.4 -1.2,0.8 -1.6,1.3 -0.4,0.5 -0.7,1.1 -0.9,1.6 -0.2,0.6 -0.3,1.1 -0.3,1.6 l 10.6,0 c -0.4,-1.6 -0.9,-2.9 -1.7,-3.7 z"
             id="path41"
             style="fill:#ffffff;fill-opacity:1"
             inkscape:connector-curvature="0" /><path
             class="st1"
             d="m 186.5,361.8 10.9,0 c 3,0 5.1,0.9 6.3,2.6 0.7,1 1.1,2.2 1.1,3.6 0,1.6 -0.5,2.9 -1.4,3.9 -0.5,0.5 -1.1,1 -2,1.5 1.3,0.5 2.2,1 2.9,1.7 1.1,1.1 1.7,2.6 1.7,4.5 0,1.6 -0.5,3.1 -1.5,4.4 -1.5,2 -3.9,2.9 -7.3,2.9 l -10.7,0 0,-25.1 z m 9.6,10.6 c 1.5,0 2.6,-0.2 3.4,-0.6 1.3,-0.6 1.9,-1.8 1.9,-3.4 0,-1.6 -0.7,-2.7 -2,-3.3 -0.8,-0.3 -1.9,-0.5 -3.4,-0.5 l -6.1,0 0,7.8 6.2,0 z m 1.2,11.6 c 2.1,0 3.6,-0.6 4.5,-1.8 0.6,-0.8 0.8,-1.7 0.8,-2.8 0,-1.8 -0.8,-3.1 -2.5,-3.7 -0.9,-0.4 -2,-0.5 -3.5,-0.5 l -6.8,0 0,8.8 7.5,0 z"
             id="path43"
             style="fill:#ffffff;fill-opacity:1"
             inkscape:connector-curvature="0" /><path
             class="st1"
             d="m 209.4,368.6 2.9,0 0,3.2 c 0.2,-0.6 0.8,-1.4 1.8,-2.2 0.9,-0.9 2,-1.3 3.2,-1.3 0.1,0 0.2,0 0.3,0 0.1,0 0.4,0 0.7,0.1 l 0,3.2 c -0.2,0 -0.4,-0.1 -0.5,-0.1 -0.2,0 -0.3,0 -0.5,0 -1.5,0 -2.7,0.5 -3.6,1.5 -0.8,1 -1.2,2.1 -1.2,3.4 l 0,10.5 -3.1,0 0,-18.3 z"
             id="path45"
             style="fill:#ffffff;fill-opacity:1"
             inkscape:connector-curvature="0" /><path
             class="st1"
             d="m 231.8,369.1 c 1.2,0.6 2.1,1.4 2.8,2.4 0.6,0.9 1,2 1.2,3.2 0.2,0.8 0.3,2.2 0.3,4 l -13.3,0 c 0.1,1.9 0.5,3.4 1.3,4.5 0.8,1.1 2.1,1.7 3.8,1.7 1.6,0 2.9,-0.5 3.8,-1.6 0.5,-0.6 0.9,-1.3 1.1,-2.1 l 3,0 c -0.1,0.7 -0.3,1.4 -0.8,2.2 -0.5,0.8 -1,1.5 -1.5,2 -0.9,0.9 -2.1,1.5 -3.4,1.8 -0.7,0.2 -1.6,0.3 -2.5,0.3 -2.3,0 -4.2,-0.8 -5.8,-2.5 -1.6,-1.7 -2.4,-4 -2.4,-7 0,-2.9 0.8,-5.3 2.4,-7.2 1.6,-1.8 3.7,-2.8 6.2,-2.8 1.3,0.2 2.5,0.5 3.8,1.1 z m 1.1,7.2 c -0.1,-1.3 -0.4,-2.4 -0.9,-3.2 -0.8,-1.5 -2.2,-2.2 -4.2,-2.2 -1.4,0 -2.6,0.5 -3.5,1.5 -0.9,1 -1.5,2.3 -1.5,3.9 l 10.1,0 z"
             id="path47"
             style="fill:#ffffff;fill-opacity:1"
             inkscape:connector-curvature="0" /><path
             class="st1"
             d="m 240,363.5 3.1,0 0,5.1 2.9,0 0,2.5 -2.9,0 0,11.9 c 0,0.6 0.2,1.1 0.6,1.3 0.2,0.1 0.6,0.2 1.2,0.2 0.1,0 0.3,0 0.5,0 0.2,0 0.4,0 0.6,-0.1 l 0,2.4 c -0.4,0.1 -0.7,0.2 -1.1,0.2 -0.4,0 -0.8,0.1 -1.2,0.1 -1.4,0 -2.4,-0.4 -2.9,-1.1 -0.5,-0.7 -0.8,-1.7 -0.8,-2.9 l 0,-12.1 -2.5,0 0,-2.5 2.5,0 0,-5 z"
             id="path49"
             style="fill:#ffffff;fill-opacity:1"
             inkscape:connector-curvature="0" /><path
             class="st1"
             d="m 258.6,375.8 c 0.7,-0.1 1.2,-0.4 1.4,-0.9 0.1,-0.3 0.2,-0.7 0.2,-1.2 0,-1.1 -0.4,-1.8 -1.1,-2.3 -0.7,-0.5 -1.8,-0.7 -3.2,-0.7 -1.6,0 -2.7,0.4 -3.4,1.3 -0.4,0.5 -0.6,1.2 -0.7,2.1 l -2.9,0 c 0.1,-2.3 0.8,-3.8 2.2,-4.7 1.4,-0.9 3,-1.3 4.9,-1.3 2.2,0 3.9,0.4 5.2,1.2 1.3,0.8 2,2.1 2,3.8 l 0,10.5 c 0,0.3 0.1,0.6 0.2,0.8 0.1,0.2 0.4,0.3 0.8,0.3 0.1,0 0.3,0 0.5,0 0.2,0 0.4,0 0.5,-0.1 l 0,2.3 c -0.5,0.1 -0.8,0.2 -1.1,0.3 -0.3,0 -0.6,0.1 -1,0.1 -1.1,0 -1.8,-0.4 -2.3,-1.1 -0.3,-0.4 -0.4,-1 -0.5,-1.7 -0.6,0.8 -1.5,1.5 -2.7,2.1 -1.2,0.6 -2.5,0.9 -3.9,0.9 -1.7,0 -3.1,-0.5 -4.2,-1.5 -1.1,-1 -1.6,-2.3 -1.6,-3.9 0,-1.7 0.5,-3 1.6,-3.9 1.1,-0.9 2.4,-1.5 4.2,-1.7 l 4.9,-0.7 z m -6.5,8.3 c 0.6,0.5 1.4,0.8 2.3,0.8 1.1,0 2.1,-0.2 3.1,-0.8 1.7,-0.8 2.6,-2.2 2.6,-4.1 l 0,-2.5 c -0.4,0.2 -0.9,0.4 -1.4,0.6 -0.5,0.2 -1.2,0.3 -1.7,0.3 l -1.9,0.2 c -1.1,0.1 -2,0.4 -2.5,0.7 -1,0.5 -1.4,1.4 -1.4,2.6 0,1 0.3,1.7 0.9,2.2 z"
             id="path51"
             style="fill:#ffffff;fill-opacity:1"
             inkscape:connector-curvature="0" /><path
             class="st1"
             d="m 277.9,369.3 c 0.6,0.4 1.2,1 1.8,1.7 l 0,-2.3 2.8,0 0,16.6 c 0,2.3 -0.3,4.2 -1,5.5 -1.3,2.5 -3.7,3.7 -7.2,3.7 -2,0 -3.6,-0.4 -5,-1.3 -1.4,-0.9 -2.1,-2.3 -2.2,-4.1 l 3.1,0 c 0.1,0.8 0.4,1.5 0.9,1.9 0.7,0.7 1.8,1 3.3,1 2.3,0 3.9,-0.8 4.6,-2.5 0.4,-1 0.6,-2.7 0.6,-5.2 -0.6,0.9 -1.4,1.6 -2.2,2.1 -0.9,0.5 -2,0.7 -3.4,0.7 -2,0 -3.7,-0.7 -5.2,-2.1 -1.5,-1.4 -2.2,-3.7 -2.2,-7 0,-3.1 0.7,-5.5 2.2,-7.2 1.5,-1.7 3.3,-2.6 5.4,-2.6 1.4,0.1 2.7,0.4 3.7,1.1 z m 0.4,3.3 c -0.9,-1.1 -2.1,-1.6 -3.6,-1.6 -2.2,0 -3.6,1 -4.4,3 -0.4,1.1 -0.6,2.5 -0.6,4.3 0,2.1 0.4,3.6 1.2,4.7 0.8,1.1 2,1.6 3.4,1.6 2.2,0 3.7,-1 4.6,-3 0.5,-1.1 0.7,-2.4 0.7,-3.9 0.1,-2.3 -0.4,-4 -1.3,-5.1 z"
             id="path53"
             style="fill:#ffffff;fill-opacity:1"
             inkscape:connector-curvature="0" /><path
             class="st1"
             d="m 286.7,368.6 2.9,0 0,2.6 c 0.9,-1.1 1.8,-1.8 2.8,-2.3 1,-0.5 2,-0.7 3.2,-0.7 2.6,0 4.4,0.9 5.3,2.7 0.5,1 0.8,2.4 0.8,4.3 l 0,11.7 -3.1,0 0,-11.5 c 0,-1.1 -0.2,-2 -0.5,-2.7 -0.5,-1.1 -1.5,-1.7 -3,-1.7 -0.7,0 -1.3,0.1 -1.8,0.2 -0.8,0.3 -1.6,0.8 -2.2,1.5 -0.5,0.6 -0.8,1.2 -1,1.9 -0.2,0.6 -0.2,1.6 -0.2,2.8 l 0,9.6 -3.1,0 0,-18.4 z"
             id="path55"
             style="fill:#ffffff;fill-opacity:1"
             inkscape:connector-curvature="0" /><path
             class="st1"
             d="m 317.1,369.1 c 1.2,0.6 2.1,1.4 2.8,2.4 0.6,0.9 1,2 1.2,3.2 0.2,0.8 0.3,2.2 0.3,4 l -13.4,0 c 0.1,1.9 0.5,3.4 1.3,4.5 0.8,1.1 2.1,1.7 3.8,1.7 1.6,0 2.9,-0.5 3.8,-1.6 0.5,-0.6 0.9,-1.3 1.1,-2.1 l 3,0 c -0.1,0.7 -0.3,1.4 -0.8,2.2 -0.5,0.8 -1,1.5 -1.5,2 -0.9,0.9 -2.1,1.5 -3.4,1.8 -0.7,0.2 -1.6,0.3 -2.5,0.3 -2.3,0 -4.2,-0.8 -5.8,-2.5 -1.6,-1.7 -2.4,-4 -2.4,-7 0,-2.9 0.8,-5.3 2.4,-7.2 1.6,-1.8 3.7,-2.8 6.2,-2.8 1.4,0.2 2.7,0.5 3.9,1.1 z m 1.1,7.2 c -0.1,-1.3 -0.4,-2.4 -0.9,-3.2 -0.8,-1.5 -2.2,-2.2 -4.2,-2.2 -1.4,0 -2.6,0.5 -3.5,1.5 -0.9,1 -1.5,2.3 -1.5,3.9 l 10.1,0 z"
             id="path57"
             style="fill:#ffffff;fill-opacity:1"
             inkscape:connector-curvature="0" /><path
             class="st1"
             d="m 326.9,375.6 8.6,0 0,3.2 -8.6,0 0,-3.2 z"
             id="path59"
             style="fill:#ffffff;fill-opacity:1"
             inkscape:connector-curvature="0" /><path
             class="st1"
             d="m 342.5,361.8 11.2,0 c 2.2,0 4,0.6 5.4,1.9 1.4,1.3 2,3 2,5.3 0,2 -0.6,3.7 -1.8,5.1 -1.2,1.5 -3.1,2.2 -5.6,2.2 l -7.8,0 0,10.6 -3.4,0 0,-25.1 z m 13.2,3.4 c -0.7,-0.4 -1.8,-0.5 -3.1,-0.5 l -6.7,0 0,8.7 6.7,0 c 1.5,0 2.7,-0.3 3.7,-1 0.9,-0.6 1.4,-1.8 1.4,-3.4 0,-1.8 -0.6,-3.1 -2,-3.8 z"
             id="path61"
             style="fill:#ffffff;fill-opacity:1"
             inkscape:connector-curvature="0" /><path
             class="st1"
             d="m 372.6,375.8 c 0.7,-0.1 1.2,-0.4 1.4,-0.9 0.1,-0.3 0.2,-0.7 0.2,-1.2 0,-1.1 -0.4,-1.8 -1.1,-2.3 -0.7,-0.5 -1.8,-0.7 -3.2,-0.7 -1.6,0 -2.7,0.4 -3.4,1.3 -0.4,0.5 -0.6,1.2 -0.7,2.1 l -2.9,0 c 0.1,-2.3 0.8,-3.8 2.2,-4.7 1.4,-0.9 3,-1.3 4.9,-1.3 2.2,0 3.9,0.4 5.2,1.2 1.3,0.8 2,2.1 2,3.8 l 0,10.5 c 0,0.3 0.1,0.6 0.2,0.8 0.1,0.2 0.4,0.3 0.8,0.3 0.1,0 0.3,0 0.5,0 0.2,0 0.4,0 0.5,-0.1 l 0,2.3 c -0.5,0.1 -0.8,0.2 -1.1,0.3 -0.3,0 -0.6,0.1 -1,0.1 -1.1,0 -1.8,-0.4 -2.3,-1.1 -0.3,-0.4 -0.4,-1 -0.5,-1.7 -0.6,0.8 -1.5,1.5 -2.7,2.1 -1.2,0.6 -2.5,0.9 -3.9,0.9 -1.7,0 -3.1,-0.5 -4.2,-1.5 -1.1,-1 -1.6,-2.3 -1.6,-3.9 0,-1.7 0.5,-3 1.6,-3.9 1.1,-0.9 2.4,-1.5 4.2,-1.7 l 4.9,-0.7 z m -6.5,8.3 c 0.6,0.5 1.4,0.8 2.3,0.8 1.1,0 2.1,-0.2 3.1,-0.8 1.7,-0.8 2.6,-2.2 2.6,-4.1 l 0,-2.5 c -0.4,0.2 -0.9,0.4 -1.4,0.6 -0.5,0.2 -1.2,0.3 -1.7,0.3 l -1.9,0.2 c -1.1,0.1 -2,0.4 -2.5,0.7 -1,0.5 -1.4,1.4 -1.4,2.6 -0.1,1 0.2,1.7 0.9,2.2 z"
             id="path63"
             style="fill:#ffffff;fill-opacity:1"
             inkscape:connector-curvature="0" /><path
             class="st1"
             d="m 392.5,368.6 3.4,0 c -0.4,1.2 -1.4,3.9 -2.9,8 -1.1,3.1 -2.1,5.7 -2.8,7.7 -1.8,4.7 -3,7.5 -3.8,8.5 -0.7,1 -2,1.5 -3.8,1.5 -0.4,0 -0.8,0 -1,-0.1 -0.2,-0.1 -0.5,-0.1 -0.9,-0.2 l 0,-2.8 c 0.5,0.1 0.9,0.2 1.2,0.3 0.2,0 0.4,0.1 0.6,0.1 0.6,0 1,-0.1 1.3,-0.3 0.3,-0.2 0.5,-0.4 0.7,-0.7 0.1,-0.1 0.3,-0.6 0.6,-1.4 0.4,-0.8 0.6,-1.5 0.8,-1.9 l -6.8,-18.8 3.5,0 4.9,14.9 5,-14.8 z"
             id="path65"
             style="fill:#ffffff;fill-opacity:1"
             inkscape:connector-curvature="0" /><path
             class="st1"
             d="m 399.7,381.2 c 0.1,1 0.4,1.8 0.8,2.4 0.8,1 2.2,1.5 4.1,1.5 1.2,0 2.2,-0.2 3.1,-0.7 0.9,-0.5 1.3,-1.3 1.3,-2.3 0,-0.8 -0.4,-1.4 -1.1,-1.8 -0.5,-0.2 -1.3,-0.5 -2.7,-0.9 l -2.5,-0.6 c -1.6,-0.4 -2.8,-0.8 -3.5,-1.3 -1.3,-0.8 -2,-2 -2,-3.5 0,-1.7 0.6,-3.1 1.9,-4.2 1.3,-1.1 3,-1.6 5.1,-1.6 2.8,0 4.8,0.8 6,2.4 0.8,1 1.1,2.1 1.1,3.3 l -2.9,0 c -0.1,-0.7 -0.3,-1.3 -0.8,-1.9 -0.7,-0.8 -2,-1.2 -3.8,-1.2 -1.2,0 -2.1,0.2 -2.7,0.7 -0.6,0.5 -0.9,1 -0.9,1.8 0,0.8 0.4,1.4 1.2,1.9 0.5,0.3 1.1,0.5 2.1,0.8 l 2.1,0.5 c 2.3,0.5 3.8,1.1 4.5,1.6 1.2,0.8 1.8,2 1.8,3.7 0,1.6 -0.6,3 -1.9,4.2 -1.3,1.2 -3.2,1.8 -5.7,1.8 -2.8,0 -4.7,-0.6 -5.9,-1.9 -1.1,-1.2 -1.8,-2.8 -1.8,-4.6 l 3.1,0 z"
             id="path67"
             style="fill:#ffffff;fill-opacity:1"
             inkscape:connector-curvature="0" /><path
             class="st1"
             d="m 435.2,369.2 c 0.5,0.3 1.2,0.9 1.9,1.8 l 0,-9.2 3,0 0,25.2 -2.8,0 0,-2.5 c -0.7,1.1 -1.6,1.9 -2.5,2.4 -1,0.5 -2.1,0.8 -3.4,0.8 -2,0 -3.8,-0.9 -5.3,-2.6 -1.5,-1.7 -2.2,-4 -2.2,-6.8 0,-2.7 0.7,-5 2,-6.9 1.4,-2 3.3,-2.9 5.8,-2.9 1.4,-0.2 2.5,0.1 3.5,0.7 z m -6.9,13.7 c 0.8,1.3 2.2,2 4,2 1.4,0 2.6,-0.6 3.5,-1.8 0.9,-1.2 1.4,-3 1.4,-5.3 0,-2.3 -0.5,-4 -1.4,-5.1 -0.9,-1.1 -2.1,-1.7 -3.5,-1.7 -1.5,0 -2.8,0.6 -3.7,1.8 -1,1.2 -1.4,2.9 -1.4,5.2 -0.1,1.9 0.3,3.6 1.1,4.9 z"
             id="path69"
             style="fill:#ffffff;fill-opacity:1"
             inkscape:connector-curvature="0" /><path
             class="st1"
             d="m 455.5,369.1 c 1.2,0.6 2.1,1.4 2.8,2.4 0.6,0.9 1,2 1.2,3.2 0.2,0.8 0.3,2.2 0.3,4 l -13.3,0 c 0.1,1.9 0.5,3.4 1.3,4.5 0.8,1.1 2.1,1.7 3.8,1.7 1.6,0 2.9,-0.5 3.8,-1.6 0.5,-0.6 0.9,-1.3 1.1,-2.1 l 3,0 c -0.1,0.7 -0.3,1.4 -0.8,2.2 -0.5,0.8 -1,1.5 -1.5,2 -0.9,0.9 -2.1,1.5 -3.4,1.8 -0.7,0.2 -1.6,0.3 -2.5,0.3 -2.3,0 -4.2,-0.8 -5.8,-2.5 -1.6,-1.7 -2.4,-4 -2.4,-7 0,-2.9 0.8,-5.3 2.4,-7.2 1.6,-1.8 3.7,-2.8 6.2,-2.8 1.4,0.2 2.6,0.5 3.8,1.1 z m 1.2,7.2 c -0.1,-1.3 -0.4,-2.4 -0.9,-3.2 -0.8,-1.5 -2.2,-2.2 -4.2,-2.2 -1.4,0 -2.6,0.5 -3.5,1.5 -0.9,1 -1.5,2.3 -1.5,3.9 l 10.1,0 z"
             id="path71"
             style="fill:#ffffff;fill-opacity:1"
             inkscape:connector-curvature="0" /><path
             class="st1"
             d="m 473.5,361.8 3.1,0 0,25.1 -3.1,0 0,-25.1 z"
             id="path73"
             style="fill:#ffffff;fill-opacity:1"
             inkscape:connector-curvature="0" /><path
             class="st1"
             d="m 490.5,375.8 c 0.7,-0.1 1.2,-0.4 1.4,-0.9 0.1,-0.3 0.2,-0.7 0.2,-1.2 0,-1.1 -0.4,-1.8 -1.1,-2.3 -0.7,-0.5 -1.8,-0.7 -3.2,-0.7 -1.6,0 -2.7,0.4 -3.4,1.3 -0.4,0.5 -0.6,1.2 -0.7,2.1 l -2.9,0 c 0.1,-2.3 0.8,-3.8 2.2,-4.7 1.4,-0.9 3,-1.3 4.9,-1.3 2.2,0 3.9,0.4 5.2,1.2 1.3,0.8 2,2.1 2,3.8 l 0,10.5 c 0,0.3 0.1,0.6 0.2,0.8 0.1,0.2 0.4,0.3 0.8,0.3 0.1,0 0.3,0 0.5,0 0.2,0 0.4,0 0.5,-0.1 l 0,2.3 c -0.5,0.1 -0.8,0.2 -1.1,0.3 -0.2,0 -0.6,0.1 -1,0.1 -1.1,0 -1.8,-0.4 -2.3,-1.1 -0.3,-0.4 -0.4,-1 -0.5,-1.7 -0.6,0.8 -1.5,1.5 -2.7,2.1 -1.2,0.6 -2.5,0.9 -3.9,0.9 -1.7,0 -3.1,-0.5 -4.2,-1.5 -1.1,-1 -1.6,-2.3 -1.6,-3.9 0,-1.7 0.5,-3 1.6,-3.9 1.1,-0.9 2.5,-1.5 4.2,-1.7 l 4.9,-0.7 z m -6.5,8.3 c 0.7,0.5 1.4,0.8 2.3,0.8 1.1,0 2.1,-0.2 3.1,-0.8 1.7,-0.8 2.6,-2.2 2.6,-4.1 l 0,-2.5 c -0.4,0.2 -0.9,0.4 -1.4,0.6 -0.6,0.2 -1.2,0.3 -1.7,0.3 l -1.9,0.2 c -1.1,0.1 -2,0.4 -2.5,0.7 -1,0.5 -1.4,1.4 -1.4,2.6 0,1 0.3,1.7 0.9,2.2 z"
             id="path75"
             style="fill:#ffffff;fill-opacity:1"
             inkscape:connector-curvature="0" /><path
             class="st1"
             d="m 510.3,361.8 3.4,0 0,22.1 12.6,0 0,3 -16,0 0,-25.1 z"
             id="path77"
             style="fill:#ffffff;fill-opacity:1"
             inkscape:connector-curvature="0" /><path
             class="st1"
             d="m 541.5,370.4 c 1.6,1.6 2.4,3.9 2.4,6.9 0,2.9 -0.7,5.4 -2.1,7.3 -1.4,1.9 -3.6,2.9 -6.6,2.9 -2.5,0 -4.5,-0.9 -6,-2.6 -1.5,-1.7 -2.2,-4 -2.2,-6.9 0,-3.1 0.8,-5.5 2.3,-7.3 1.5,-1.8 3.6,-2.7 6.2,-2.7 2.4,0.1 4.4,0.8 6,2.4 z m -1.9,12.2 c 0.7,-1.5 1.1,-3.3 1.1,-5.1 0,-1.7 -0.3,-3.1 -0.8,-4.2 -0.9,-1.7 -2.3,-2.5 -4.4,-2.5 -1.9,0 -3.2,0.7 -4.1,2.2 -0.9,1.5 -1.3,3.2 -1.3,5.2 0,1.9 0.4,3.6 1.3,4.9 0.9,1.3 2.2,1.9 4,1.9 2.1,-0.1 3.4,-0.9 4.2,-2.4 z"
             id="path79"
             style="fill:#ffffff;fill-opacity:1"
             inkscape:connector-curvature="0" /><path
             class="st1"
             d="m 547.3,361.8 3.1,0 0,3.5 -3.1,0 0,-3.5 z m 0,6.9 3.1,0 0,18.2 -3.1,0 0,-18.2 z"
             id="path81"
             style="fill:#ffffff;fill-opacity:1"
             inkscape:connector-curvature="0" /><path
             class="st1"
             d="m 554.7,368.6 2.9,0 0,3.2 c 0.2,-0.6 0.8,-1.4 1.8,-2.2 0.9,-0.9 2,-1.3 3.2,-1.3 0.1,0 0.2,0 0.3,0 0.1,0 0.4,0 0.7,0.1 l 0,3.2 c -0.2,0 -0.4,-0.1 -0.5,-0.1 -0.2,0 -0.3,0 -0.5,0 -1.5,0 -2.7,0.5 -3.6,1.5 -0.8,1 -1.2,2.1 -1.2,3.4 l 0,10.5 -3.1,0 0,-18.3 z"
             id="path83"
             style="fill:#ffffff;fill-opacity:1"
             inkscape:connector-curvature="0" /><path
             class="st1"
             d="m 577,369.1 c 1.2,0.6 2.1,1.4 2.8,2.4 0.6,0.9 1,2 1.2,3.2 0.2,0.8 0.3,2.2 0.3,4 l -13.3,0 c 0.1,1.9 0.5,3.4 1.3,4.5 0.8,1.1 2.1,1.7 3.8,1.7 1.6,0 2.9,-0.5 3.8,-1.6 0.5,-0.6 0.9,-1.3 1.1,-2.1 l 3,0 c -0.1,0.7 -0.3,1.4 -0.8,2.2 -0.5,0.8 -1,1.5 -1.5,2 -0.9,0.9 -2.1,1.5 -3.4,1.8 -0.7,0.2 -1.6,0.3 -2.5,0.3 -2.3,0 -4.2,-0.8 -5.8,-2.5 -1.6,-1.7 -2.4,-4 -2.4,-7 0,-2.9 0.8,-5.3 2.4,-7.2 1.6,-1.8 3.7,-2.8 6.2,-2.8 1.3,0.2 2.6,0.5 3.8,1.1 z m 1.1,7.2 c -0.1,-1.3 -0.4,-2.4 -0.9,-3.2 -0.8,-1.5 -2.2,-2.2 -4.2,-2.2 -1.4,0 -2.6,0.5 -3.5,1.5 -0.9,1 -1.5,2.3 -1.5,3.9 l 10.1,0 z"
             id="path85"
             style="fill:#ffffff;fill-opacity:1"
             inkscape:connector-curvature="0" /><path
             class="st1"
             d="m 186.5,402.8 18.2,0 0,3.1 -14.9,0 0,7.6 13.8,0 0,2.9 -13.8,0 0,8.5 15.2,0 0,3 -18.5,0 0,-25.1 z m 13.2,-6.9 -4.6,4.9 -2.4,0 3.1,-4.9 3.9,0 z"
             id="path87"
             style="fill:#ffffff;fill-opacity:1"
             inkscape:connector-curvature="0" /><path
             class="st1"
             d="m 220.3,410.6 c 1.3,1 2.1,2.7 2.3,5.2 l -3,0 c -0.2,-1.1 -0.6,-2.1 -1.2,-2.8 -0.6,-0.7 -1.7,-1.1 -3.1,-1.1 -2,0 -3.4,1 -4.2,2.9 -0.5,1.2 -0.8,2.8 -0.8,4.6 0,1.8 0.4,3.4 1.2,4.6 0.8,1.3 2,1.9 3.7,1.9 1.3,0 2.3,-0.4 3,-1.2 0.7,-0.8 1.3,-1.8 1.5,-3.2 l 3,0 c -0.3,2.4 -1.2,4.2 -2.6,5.3 -1.4,1.1 -3.1,1.7 -5.2,1.7 -2.4,0 -4.3,-0.9 -5.7,-2.6 -1.4,-1.7 -2.1,-3.9 -2.1,-6.6 0,-3.2 0.8,-5.7 2.3,-7.5 1.6,-1.8 3.5,-2.7 6,-2.7 1.9,0 3.6,0.5 4.9,1.5 z"
             id="path89"
             style="fill:#ffffff;fill-opacity:1"
             inkscape:connector-curvature="0" /><path
             class="st1"
             d="m 239,411.4 c 1.6,1.6 2.4,3.9 2.4,6.9 0,2.9 -0.7,5.4 -2.1,7.3 -1.4,1.9 -3.6,2.9 -6.6,2.9 -2.5,0 -4.5,-0.9 -6,-2.6 -1.5,-1.7 -2.2,-4 -2.2,-6.9 0,-3.1 0.8,-5.5 2.3,-7.3 1.5,-1.8 3.6,-2.7 6.2,-2.7 2.4,0.1 4.4,0.8 6,2.4 z m -1.9,12.2 c 0.7,-1.5 1.1,-3.3 1.1,-5.1 0,-1.7 -0.3,-3.1 -0.8,-4.2 -0.9,-1.7 -2.3,-2.5 -4.4,-2.5 -1.9,0 -3.2,0.7 -4.1,2.2 -0.8,1.4 -1.3,3.2 -1.3,5.2 0,1.9 0.4,3.6 1.3,4.9 0.8,1.3 2.2,1.9 4,1.9 2,-0.1 3.4,-0.9 4.2,-2.4 z"
             id="path91"
             style="fill:#ffffff;fill-opacity:1"
             inkscape:connector-curvature="0" /><path
             class="st1"
             d="m 244.8,402.8 3.1,0 0,25.1 -3.1,0 0,-25.1 z"
             id="path93"
             style="fill:#ffffff;fill-opacity:1"
             inkscape:connector-curvature="0" /><path
             class="st1"
             d="m 263.5,410.1 c 1.2,0.6 2.1,1.4 2.8,2.4 0.6,0.9 1,2 1.2,3.2 0.2,0.8 0.3,2.2 0.3,4 l -13.3,0 c 0.1,1.9 0.5,3.4 1.3,4.5 0.8,1.1 2.1,1.7 3.8,1.7 1.6,0 2.9,-0.5 3.8,-1.6 0.5,-0.6 0.9,-1.3 1.1,-2.1 l 3,0 c -0.1,0.7 -0.3,1.4 -0.8,2.2 -0.5,0.8 -1,1.5 -1.5,2 -0.9,0.9 -2.1,1.5 -3.4,1.8 -0.7,0.2 -1.6,0.3 -2.5,0.3 -2.3,0 -4.2,-0.8 -5.8,-2.5 -1.6,-1.7 -2.4,-4 -2.4,-7 0,-2.9 0.8,-5.3 2.4,-7.2 1.6,-1.8 3.7,-2.8 6.2,-2.8 1.3,0.2 2.6,0.5 3.8,1.1 z m 1.1,7.2 c -0.1,-1.3 -0.4,-2.4 -0.9,-3.2 -0.8,-1.5 -2.2,-2.2 -4.2,-2.2 -1.4,0 -2.6,0.5 -3.5,1.5 -0.9,1 -1.5,2.3 -1.5,3.9 l 10.1,0 z"
             id="path95"
             style="fill:#ffffff;fill-opacity:1"
             inkscape:connector-curvature="0" /><path
             class="st1"
             d="m 281.7,402.8 4.9,0 7.2,21.2 7.2,-21.2 4.8,0 0,25.1 -3.2,0 0,-14.8 c 0,-0.5 0,-1.4 0,-2.5 0,-1.2 0,-2.5 0,-3.8 l -7.2,21.2 -3.4,0 -7.2,-21.2 0,0.8 c 0,0.6 0,1.6 0.1,2.8 0.1,1.2 0.1,2.2 0.1,2.8 l 0,14.8 -3.2,0 0,-25.2 z"
             id="path97"
             style="fill:#ffffff;fill-opacity:1"
             inkscape:connector-curvature="0" /><path
             class="st1"
             d="m 310.3,402.8 3.1,0 0,3.5 -3.1,0 0,-3.5 z m 0,6.9 3.1,0 0,18.2 -3.1,0 0,-18.2 z"
             id="path99"
             style="fill:#ffffff;fill-opacity:1"
             inkscape:connector-curvature="0" /><path
             class="st1"
             d="m 317.6,409.6 2.9,0 0,2.6 c 0.9,-1.1 1.8,-1.8 2.8,-2.3 1,-0.5 2,-0.7 3.2,-0.7 2.6,0 4.4,0.9 5.3,2.7 0.5,1 0.8,2.4 0.8,4.3 l 0,11.7 -3.1,0 0,-11.5 c 0,-1.1 -0.2,-2 -0.5,-2.7 -0.5,-1.1 -1.5,-1.7 -3,-1.7 -0.7,0 -1.3,0.1 -1.8,0.2 -0.8,0.3 -1.6,0.8 -2.2,1.5 -0.5,0.6 -0.8,1.2 -1,1.9 -0.2,0.6 -0.2,1.6 -0.2,2.8 l 0,9.6 -3.1,0 0,-18.4 z"
             id="path101"
             style="fill:#ffffff;fill-opacity:1"
             inkscape:connector-curvature="0" /><path
             class="st1"
             d="m 347.9,410.1 c 1.2,0.6 2.1,1.4 2.8,2.4 0.6,0.9 1,2 1.2,3.2 0.2,0.8 0.3,2.2 0.3,4 l -13.3,0 c 0.1,1.9 0.5,3.4 1.3,4.5 0.8,1.1 2.1,1.7 3.8,1.7 1.6,0 2.9,-0.5 3.8,-1.6 0.5,-0.6 0.9,-1.3 1.1,-2.1 l 3,0 c -0.1,0.7 -0.3,1.4 -0.8,2.2 -0.5,0.8 -1,1.5 -1.5,2 -0.9,0.9 -2.1,1.5 -3.4,1.8 -0.7,0.2 -1.6,0.3 -2.5,0.3 -2.3,0 -4.2,-0.8 -5.8,-2.5 -1.6,-1.7 -2.4,-4 -2.4,-7 0,-2.9 0.8,-5.3 2.4,-7.2 1.6,-1.8 3.7,-2.8 6.2,-2.8 1.4,0.2 2.6,0.5 3.8,1.1 z m 1.1,7.2 c -0.1,-1.3 -0.4,-2.4 -0.9,-3.2 -0.8,-1.5 -2.2,-2.2 -4.2,-2.2 -1.4,0 -2.6,0.5 -3.5,1.5 -0.9,1 -1.5,2.3 -1.5,3.9 l 10.1,0 z"
             id="path103"
             style="fill:#ffffff;fill-opacity:1"
             inkscape:connector-curvature="0" /><path
             class="st1"
             d="m 357.4,422.2 c 0.1,1 0.4,1.8 0.8,2.4 0.8,1 2.2,1.5 4.1,1.5 1.2,0 2.2,-0.2 3.1,-0.7 0.9,-0.5 1.3,-1.3 1.3,-2.3 0,-0.8 -0.4,-1.4 -1.1,-1.8 -0.5,-0.2 -1.3,-0.5 -2.7,-0.9 l -2.5,-0.6 c -1.6,-0.4 -2.8,-0.8 -3.5,-1.3 -1.3,-0.8 -2,-2 -2,-3.5 0,-1.7 0.6,-3.1 1.9,-4.2 1.3,-1.1 3,-1.6 5.1,-1.6 2.8,0 4.8,0.8 6,2.4 0.8,1 1.1,2.1 1.1,3.3 l -2.9,0 c -0.1,-0.7 -0.3,-1.3 -0.8,-1.9 -0.7,-0.8 -2,-1.2 -3.8,-1.2 -1.2,0 -2.1,0.2 -2.7,0.7 -0.6,0.5 -0.9,1 -0.9,1.8 0,0.8 0.4,1.4 1.2,1.9 0.5,0.3 1.1,0.5 2.1,0.8 l 2.1,0.5 c 2.3,0.5 3.8,1.1 4.5,1.6 1.2,0.8 1.8,2 1.8,3.7 0,1.6 -0.6,3 -1.9,4.2 -1.3,1.2 -3.2,1.8 -5.7,1.8 -2.8,0 -4.7,-0.6 -5.9,-1.9 -1.1,-1.2 -1.8,-2.8 -1.8,-4.6 l 3.1,0 z"
             id="path105"
             style="fill:#ffffff;fill-opacity:1"
             inkscape:connector-curvature="0" /><path
             class="st1"
             d="m 373.6,416.6 8.6,0 0,3.2 -8.6,0 0,-3.2 z"
             id="path107"
             style="fill:#ffffff;fill-opacity:1"
             inkscape:connector-curvature="0" /><path
             class="st1"
             d="m 400.6,402.8 0,3 -8.5,0 0,22.1 -3.4,0 0,-22.1 -8.5,0 0,-3 20.4,0 z"
             id="path109"
             style="fill:#ffffff;fill-opacity:1"
             inkscape:connector-curvature="0" /><path
             class="st1"
             d="m 409.8,410.1 c 1.2,0.6 2.1,1.4 2.8,2.4 0.6,0.9 1,2 1.2,3.2 0.2,0.8 0.3,2.2 0.3,4 l -13.3,0 c 0.1,1.9 0.5,3.4 1.3,4.5 0.8,1.1 2.1,1.7 3.8,1.7 1.6,0 2.9,-0.5 3.8,-1.6 0.5,-0.6 0.9,-1.3 1.1,-2.1 l 3,0 c -0.1,0.7 -0.3,1.4 -0.8,2.2 -0.5,0.8 -1,1.5 -1.5,2 -0.9,0.9 -2.1,1.5 -3.4,1.8 -0.7,0.2 -1.6,0.3 -2.5,0.3 -2.3,0 -4.2,-0.8 -5.8,-2.5 -1.6,-1.7 -2.4,-4 -2.4,-7 0,-2.9 0.8,-5.3 2.4,-7.2 1.6,-1.8 3.7,-2.8 6.2,-2.8 1.3,0.2 2.6,0.5 3.8,1.1 z m 1.1,7.2 c -0.1,-1.3 -0.4,-2.4 -0.9,-3.2 -0.8,-1.5 -2.2,-2.2 -4.2,-2.2 -1.4,0 -2.6,0.5 -3.5,1.5 -0.9,1 -1.5,2.3 -1.5,3.9 l 10.1,0 z"
             id="path111"
             style="fill:#ffffff;fill-opacity:1"
             inkscape:connector-curvature="0" /><path
             class="st1"
             d="m 417.5,402.8 3.1,0 0,25.1 -3.1,0 0,-25.1 z"
             id="path113"
             style="fill:#ffffff;fill-opacity:1"
             inkscape:connector-curvature="0" /><path
             class="st1"
             d="m 436.2,410.1 c 1.2,0.6 2.1,1.4 2.8,2.4 0.6,0.9 1,2 1.2,3.2 0.2,0.8 0.3,2.2 0.3,4 l -13.3,0 c 0.1,1.9 0.5,3.4 1.3,4.5 0.8,1.1 2.1,1.7 3.8,1.7 1.6,0 2.9,-0.5 3.8,-1.6 0.5,-0.6 0.9,-1.3 1.1,-2.1 l 3,0 c -0.1,0.7 -0.3,1.4 -0.8,2.2 -0.5,0.8 -1,1.5 -1.5,2 -0.9,0.9 -2.1,1.5 -3.4,1.8 -0.7,0.2 -1.6,0.3 -2.5,0.3 -2.3,0 -4.2,-0.8 -5.8,-2.5 -1.6,-1.7 -2.4,-4 -2.4,-7 0,-2.9 0.8,-5.3 2.4,-7.2 1.6,-1.8 3.7,-2.8 6.2,-2.8 1.3,0.2 2.5,0.5 3.8,1.1 z m 1.1,7.2 c -0.1,-1.3 -0.4,-2.4 -0.9,-3.2 -0.8,-1.5 -2.2,-2.2 -4.2,-2.2 -1.4,0 -2.6,0.5 -3.5,1.5 -0.9,1 -1.5,2.3 -1.5,3.9 l 10.1,0 z"
             id="path115"
             style="fill:#ffffff;fill-opacity:1"
             inkscape:connector-curvature="0" /><path
             class="st1"
             d="m 456.1,410.6 c 1.3,1 2.1,2.7 2.3,5.2 l -3,0 c -0.2,-1.1 -0.6,-2.1 -1.2,-2.8 -0.6,-0.7 -1.7,-1.1 -3.1,-1.1 -2,0 -3.4,1 -4.2,2.9 -0.5,1.2 -0.8,2.8 -0.8,4.6 0,1.8 0.4,3.4 1.2,4.6 0.8,1.3 2,1.9 3.7,1.9 1.3,0 2.3,-0.4 3,-1.2 0.7,-0.8 1.3,-1.8 1.5,-3.2 l 3,0 c -0.3,2.4 -1.2,4.2 -2.6,5.3 -1.4,1.1 -3.1,1.7 -5.2,1.7 -2.4,0 -4.3,-0.9 -5.7,-2.6 -1.4,-1.7 -2.1,-3.9 -2.1,-6.6 0,-3.2 0.8,-5.7 2.3,-7.5 1.6,-1.8 3.5,-2.7 6,-2.7 1.9,0 3.6,0.5 4.9,1.5 z"
             id="path117"
             style="fill:#ffffff;fill-opacity:1"
             inkscape:connector-curvature="0" /><path
             class="st1"
             d="m 474.8,411.4 c 1.6,1.6 2.4,3.9 2.4,6.9 0,2.9 -0.7,5.4 -2.1,7.3 -1.4,1.9 -3.6,2.9 -6.6,2.9 -2.5,0 -4.5,-0.9 -6,-2.6 -1.5,-1.7 -2.2,-4 -2.2,-6.9 0,-3.1 0.8,-5.5 2.3,-7.3 1.5,-1.8 3.6,-2.7 6.2,-2.7 2.4,0.1 4.4,0.8 6,2.4 z m -1.9,12.2 c 0.7,-1.5 1.1,-3.3 1.1,-5.1 0,-1.7 -0.3,-3.1 -0.8,-4.2 -0.9,-1.7 -2.3,-2.5 -4.4,-2.5 -1.9,0 -3.2,0.7 -4.1,2.2 -0.9,1.5 -1.3,3.2 -1.3,5.2 0,1.9 0.4,3.6 1.3,4.9 0.9,1.3 2.2,1.9 4,1.9 2.1,-0.1 3.5,-0.9 4.2,-2.4 z"
             id="path119"
             style="fill:#ffffff;fill-opacity:1"
             inkscape:connector-curvature="0" /><path
             class="st1"
             d="m 480.6,409.6 3,0 0,2.6 c 0.7,-0.9 1.4,-1.6 2,-2 1,-0.7 2.2,-1 3.5,-1 1.5,0 2.6,0.4 3.5,1.1 0.5,0.4 1,1 1.4,1.8 0.7,-1 1.5,-1.7 2.4,-2.2 0.9,-0.5 2,-0.7 3.1,-0.7 2.5,0 4.1,0.9 5,2.7 0.5,1 0.7,2.2 0.7,3.9 l 0,12.2 -3.2,0 0,-12.7 c 0,-1.2 -0.3,-2.1 -0.9,-2.5 -0.6,-0.5 -1.4,-0.7 -2.2,-0.7 -1.2,0 -2.2,0.4 -3.1,1.2 -0.9,0.8 -1.3,2.2 -1.3,4.1 l 0,10.6 -3.1,0 0,-11.9 c 0,-1.2 -0.1,-2.1 -0.4,-2.7 -0.5,-0.9 -1.3,-1.3 -2.6,-1.3 -1.2,0 -2.2,0.5 -3.2,1.4 -1,0.9 -1.4,2.5 -1.4,4.9 l 0,9.7 -3.1,0 0,-18.5 z"
             id="path121"
             style="fill:#ffffff;fill-opacity:1"
             inkscape:connector-curvature="0" /></g></g><g
         id="g123"
         style="fill:#ffffff;fill-opacity:1"><path
           class="st1"
           d="m 409.7,402.2 -4.6,4.9 -2.4,0 3.1,-4.9 3.9,0 z"
           id="path125"
           style="fill:#ffffff;fill-opacity:1"
           inkscape:connector-curvature="0" /></g><g
         id="g127"
         style="fill:#ffffff;fill-opacity:1"><path
           class="st1"
           d="m 436,402.2 -4.6,4.9 -2.4,0 3.1,-4.9 3.9,0 z"
           id="path129"
           style="fill:#ffffff;fill-opacity:1"
           inkscape:connector-curvature="0" /></g></g><g
       id="g131"><g
         id="g133"><polygon
           class="st2"
           points="316.1,160.6 186.5,290.2 186.5,160.6 "
           id="polygon135"
           style="fill:#ffffff;fill-opacity:1" /><polygon
           class="st2"
           points="316.1,160.6 380.9,225.4 445.7,160.6 445.7,290.2 316.1,290.2 "
           id="polygon137"
           style="fill:#ffffff;fill-opacity:1"
           inkscape:export-xdpi="201.34227"
           inkscape:export-ydpi="201.34227" /><polygon
           class="st2"
           points="510.5,160.6 640,160.6 510.5,290.2 510.5,225.4 445.7,225.4 "
           id="polygon139"
           style="fill:#ffffff;fill-opacity:1"
           inkscape:export-xdpi="201.34227"
           inkscape:export-ydpi="201.34227" /></g></g></g></svg>